#N canvas 107 134 727 514 10;
#X obj 342 184 tgl 15 0 empty empty empty 0 -6 0 8 -262144 -1 -1 0
1;
#X msg 342 202 digital 10 \$1;
#X msg 134 21 pinMode 10 output;
#X obj 113 180 arduino 0;
#X obj 89 149 bng 15 250 50 0 empty empty empty 17 7 0 10 -262144 -1
-1;
#X msg 241 37 pinMode 8 input \, bang;
#X msg 38 75 pinMode 14 analog;
#X obj 109 216 route analog;
#X msg 162 79 pinMode 15 analog;
#X obj 103 297 vsl 30 128 0 1 0 0 pot_vermelho empty empty 0 -9 0 10
-258113 -261234 -1 12 1;
#X obj 142 298 vsl 30 128 0 1 0 0 pot_azul empty empty 0 -9 0 10 -4160
-203904 -1 8988 1;
#X msg 290 84 pinMode 16 analog;
#X obj 184 297 vsl 30 128 0 1 0 0 pot_verde empty empty 0 -9 0 10 -4034
-13381 -1 2048 1;
#X obj 225 299 vsl 30 128 0 1 0 0 pot_amarelo empty empty 0 -9 0 10
-257985 -260097 -1 9658 1;
#X obj 266 298 vsl 30 128 0 1 0 0 pot_roxo empty empty 0 -9 0 10 -159808
-232576 -1 2173 1;
#X obj 113 254 route 0 1 2 3 4;
#X msg 404 84 pinMode 17 analog;
#X msg 514 84 pinMode 18 analog;
#X connect 0 0 1 0;
#X connect 1 0 3 0;
#X connect 2 0 3 0;
#X connect 3 0 7 0;
#X connect 4 0 3 0;
#X connect 5 0 3 0;
#X connect 6 0 3 0;
#X connect 7 0 15 0;
#X connect 8 0 3 0;
#X connect 11 0 3 0;
#X connect 15 0 9 0;
#X connect 15 1 10 0;
#X connect 15 2 12 0;
#X connect 15 3 13 0;
#X connect 15 4 14 0;
#X connect 16 0 3 0;
#X connect 17 0 3 0;
