#N canvas 247 78 1366 690 10;
#N canvas 0 0 450 300 (subpatch) 0;
#X array original 441000 float 2;
#X coords 0 1 440999 -1 100 50 1 0 0;
#X restore 897 -90 graph;
#X obj 594 137 tabwrite~ original;
#X msg 594 35 stop;
#X obj 1006 -43 s original;
#X msg 1019 -80 normalize 0.1;
#X msg 1118 -80 const 0;
#X text 1122 -102 apaga;
#X obj 697 50 timer;
#X floatatom 697 77 5 0 0 0 - - -, f 5;
#X obj 664 228 * 44.1;
#X msg 642 104 start;
#X obj 900 -129 import iem_tab;
#X obj 676 478 tab_copy original buffer01;
#X obj 739 -86 bng 50 250 50 0 empty empty grava 17 -20 0 30 -258113
-1 -1;
#N canvas 0 0 450 300 (subpatch) 0;
#X array buffer01 37044 float 2;
#X coords 0 1 37044 -1 100 50 1 0 0;
#X restore 132 -110 graph;
#X obj 580 418 t f f;
#X obj 607 479 s buffer01;
#X msg 607 461 resize \$1;
#X msg 629 437 0 0 \$1 \, bang;
#X obj 515 76 adc~;
#N canvas 377 463 450 300 conta0a3 0;
#X obj 62 101 f;
#X obj 90 101 +;
#X msg 96 76 1;
#X floatatom 24 160 5 0 0 0 - - -, f 5;
#X obj 51 41 t b b;
#X msg 104 127 -1;
#X obj 62 124 sel 3;
#X obj 95 17 inlet;
#X obj 51 190 outlet;
#X connect 0 0 1 1;
#X connect 0 0 3 0;
#X connect 0 0 6 0;
#X connect 0 0 8 0;
#X connect 1 0 0 1;
#X connect 2 0 1 0;
#X connect 4 0 0 0;
#X connect 4 1 2 0;
#X connect 5 0 1 1;
#X connect 6 0 5 0;
#X connect 7 0 4 0;
#X restore 775 -19 pd conta0a3;
#X obj 649 256 pack f f;
#X obj 649 288 route 0 1 2 3;
#X obj 815 440 t f f;
#X msg 844 459 resize \$1;
#X msg 866 435 0 0 \$1 \, bang;
#X obj 844 477 s buffer02;
#X obj 953 379 t f f;
#X msg 980 424 resize \$1;
#X msg 1002 400 0 0 \$1 \, bang;
#X obj 980 442 s buffer03;
#X obj 913 476 tab_copy original buffer02;
#N canvas 0 0 450 300 (subpatch) 0;
#X array buffer02 115541 float 2;
#X coords 0 1 115541 -1 100 50 1 0 0;
#X restore 242 -110 graph;
#N canvas 0 0 450 300 (subpatch) 0;
#X array buffer03 52038 float 2;
#X coords 0 1 52038 -1 100 50 1 0 0;
#X restore 352 -111 graph;
#N canvas 0 0 450 300 (subpatch) 0;
#X array buffer00 44982 float 2;
#X coords 0 1 44982 -1 100 50 1 0 0;
#X restore 19 -110 graph;
#X obj 377 389 t f f;
#X msg 367 462 resize \$1;
#X msg 389 438 0 0 \$1 \, bang;
#X obj 366 483 s buffer00;
#X obj 430 482 tab_copy original buffer00;
#X obj 1049 441 tab_copy original buffer03;
#X obj 153 153 bng 15 250 50 0 empty empty empty 17 7 0 10 -262144
-1 -1;
#X obj 126 168 tabplay~ buffer01;
#X obj 73 91 tabplay~ buffer00;
#X obj 678 -36 t b b b;
#X obj 726 136 int;
#X obj 593 -22 t b b b;
#X obj 775 48 nbx 5 40 -1e+37 1e+37 0 0 empty empty empty 0 -8 0 30
-257985 -258113 -1 1 256;
#X obj 542 -87 bng 50 250 50 0 empty empty para 17 -20 0 30 -204032
-1 -1;
#X obj 216 136 spigot;
#X obj 249 118 tgl 15 0 empty empty empty 17 7 0 10 -262144 -1 -1 1
1;
#X obj 89 76 bng 15 250 50 0 empty empty empty 17 7 0 10 -262144 -1
-1;
#X obj 134 59 spigot;
#X obj 167 41 tgl 15 0 empty empty empty 17 7 0 10 -262144 -1 -1 1
1;
#X obj 281 309 bng 15 250 50 0 empty empty empty 17 7 0 10 -262144
-1 -1;
#X obj 331 292 spigot;
#X obj 364 274 tgl 15 0 empty empty empty 17 7 0 10 -262144 -1 -1 1
1;
#X obj 235 223 bng 15 250 50 0 empty empty empty 17 7 0 10 -262144
-1 -1;
#X obj 278 196 spigot;
#X obj 311 178 tgl 15 0 empty empty empty 17 7 0 10 -262144 -1 -1 1
1;
#X obj 181 238 tabplay~ buffer02;
#X obj 232 324 tabplay~ buffer03;
#X text 995 -128 para usar o objeto tab_copy;
#X text 628 388 redimensiona tabelas;
#X text 52 31 loop das tabelas;
#X text 831 29 troca de buffer;
#X obj 663 -129 key;
#N canvas 492 338 450 300 limparsamplers 0;
#X msg 92 14 const 0;
#X obj 91 151 s buffer00;
#X obj 115 175 s buffer01;
#X obj 154 203 s buffer02;
#X obj 183 229 s buffer03;
#X msg 270 128 const 0;
#X text 84 -4 limpar Tudo;
#X msg 309 177 const 0;
#X msg 164 43 const 0;
#X msg 221 82 const 0;
#X text 162 24 Limpar 1;
#X text 218 64 Limpar 2;
#X text 268 109 Limpar 3;
#X text 307 157 Limpar 4;
#X connect 0 0 1 0;
#X connect 0 0 2 0;
#X connect 0 0 3 0;
#X connect 0 0 4 0;
#X connect 5 0 3 0;
#X connect 7 0 4 0;
#X connect 8 0 1 0;
#X connect 9 0 2 0;
#X restore 1207 9 pd limparsamplers;
#N canvas 636 275 450 392 controlesOSC 0;
#X obj 108 18 dumpOSC 10000;
#X floatatom 195 113 5 0 0 0 - - -, f 5;
#X floatatom 242 113 5 0 0 0 - - -, f 5;
#X floatatom 289 113 5 0 0 0 - - -, f 5;
#X floatatom 336 112 5 0 0 0 - - -, f 5;
#X floatatom 384 112 5 0 0 0 - - -, f 5;
#X obj 195 145 s v1;
#X obj 242 145 s v2;
#X obj 289 144 s v3;
#X obj 336 144 s v4;
#X obj 36 -21 import mrpeach;
#X obj 43 70 print OSC;
#X floatatom 135 227 5 0 0 0 - - -, f 5;
#X floatatom 182 227 5 0 0 0 - - -, f 5;
#X floatatom 230 227 5 0 0 0 - - -, f 5;
#X floatatom 277 226 5 0 0 0 - - -, f 5;
#X floatatom 325 226 5 0 0 0 - - -, f 5;
#X obj 135 259 s pn1;
#X obj 182 258 s pn2;
#X obj 230 258 s pn3;
#X obj 277 258 s pn4;
#X obj 195 74 routeOSC /vol1 /vol2 /vol3 /vol4;
#X obj 136 187 routeOSC /pan1 /pan2 /pan3 /pan4;
#X connect 0 0 21 0;
#X connect 0 0 22 0;
#X connect 1 0 6 0;
#X connect 2 0 7 0;
#X connect 3 0 8 0;
#X connect 4 0 9 0;
#X connect 12 0 17 0;
#X connect 13 0 18 0;
#X connect 14 0 19 0;
#X connect 15 0 20 0;
#X connect 21 0 1 0;
#X connect 21 1 2 0;
#X connect 21 2 3 0;
#X connect 21 3 4 0;
#X connect 21 4 5 0;
#X connect 22 0 12 0;
#X connect 22 1 13 0;
#X connect 22 2 14 0;
#X connect 22 3 15 0;
#X connect 22 4 16 0;
#X restore 1204 -21 pd controlesOSC;
#X obj 131 466 dac~ 1 2;
#N canvas 297 278 822 484 mixer 0;
#X obj 228 101 inlet~;
#X obj 340 102 inlet~;
#X obj 456 106 inlet~;
#X obj 577 114 inlet~;
#X obj 260 139 vsl 15 128 0.0098 0.98 0 0 empty empty empty 0 -9 0
10 -204786 -1 -1 0 1;
#X obj 227 282 *~ 0.5;
#X obj 372 140 vsl 15 128 0.0098 0.98 0 0 empty empty empty 0 -9 0
10 -204786 -1 -1 0 1;
#X obj 339 283 *~ 0.5;
#X obj 489 140 vsl 15 128 0.0098 0.98 1 0 empty empty empty 0 -9 0
10 -204786 -1 -1 0 1;
#X obj 456 283 *~ 0.5;
#X obj 609 147 vsl 15 128 0.0098 0.98 0 0 empty empty empty 0 -9 0
10 -204786 -1 -1 0 1;
#X obj 576 290 *~ 0.5;
#X obj 176 433 outlet~;
#X obj 273 101 r v1;
#X obj 389 102 r v2;
#X obj 506 107 r v3;
#X obj 631 114 r v4;
#X obj 235 434 outlet~;
#X obj 304 402 outlet~;
#X obj 361 403 outlet~;
#X obj 421 403 outlet~;
#X obj 478 404 outlet~;
#X obj 540 404 outlet~;
#X obj 597 405 outlet~;
#X obj 15 316 mono-pitchshifter;
#X connect 0 0 5 0;
#X connect 1 0 7 0;
#X connect 2 0 9 0;
#X connect 3 0 11 0;
#X connect 4 0 5 1;
#X connect 5 0 24 0;
#X connect 6 0 7 1;
#X connect 7 0 18 0;
#X connect 7 0 19 0;
#X connect 8 0 9 1;
#X connect 9 0 20 0;
#X connect 9 0 21 0;
#X connect 10 0 11 1;
#X connect 11 0 22 0;
#X connect 11 0 23 0;
#X connect 13 0 4 0;
#X connect 14 0 6 0;
#X connect 15 0 8 0;
#X connect 16 0 10 0;
#X connect 24 0 12 0;
#X connect 24 0 17 0;
#X restore 74 383 pd mixer ------------------;
#X msg 333 436 const 0;
#X obj 408 508 hsl 128 15 0.1 1 0 0 empty empty empty -2 -8 0 10 -262144
-1 -1 4631 1;
#X msg 379 529 normalize \$1;
#N canvas 319 171 450 300 giroloop_buffer00 0;
#X obj 45 249 hip~ 5;
#X floatatom 46 50 0 0 0 0 - - -;
#X text 85 49 <-- frequency (Hz.);
#X floatatom 132 87 0 0 0 0 - - -;
#X obj 132 114 * 441;
#X obj 110 163 +~ 1;
#X obj 45 139 -~ 0.5;
#X obj 45 189 cos~;
#X obj 45 222 *~;
#X obj 46 77 phasor~;
#X obj 45 164 *~ 0.5;
#X obj 110 138 *~;
#X obj 49 279 outlet~;
#X obj 110 189 tabread4~ buffer00;
#X obj 30 21 inlet;
#X obj 163 66 inlet;
#X connect 0 0 12 0;
#X connect 1 0 9 0;
#X connect 3 0 4 0;
#X connect 4 0 11 1;
#X connect 5 0 13 0;
#X connect 6 0 10 0;
#X connect 7 0 8 0;
#X connect 8 0 0 0;
#X connect 9 0 6 0;
#X connect 9 0 11 0;
#X connect 10 0 7 0;
#X connect 11 0 5 0;
#X connect 13 0 8 1;
#X connect 14 0 1 0;
#X connect 15 0 3 0;
#X restore 276 67 pd giroloop_buffer00;
#X floatatom 271 29 5 0 0 0 - - -, f 5;
#X floatatom 431 38 5 0 0 0 - - -, f 5;
#X obj 650 505 hsl 128 15 0.1 1 0 0 empty empty empty -2 -8 0 10 -262144
-1 -1 6465 1;
#X msg 621 526 normalize \$1;
#X obj 842 510 hsl 128 15 0.1 1 0 0 empty empty empty -2 -8 0 10 -262144
-1 -1 0 1;
#X msg 813 531 normalize \$1;
#X obj 1121 380 hsl 128 15 0.1 1 0 0 empty empty empty -2 -8 0 10 -262144
-1 -1 12341 1;
#X msg 1092 401 normalize \$1;
#X obj 880 221 delay 100;
#X msg 889 257 1;
#X obj 56 506 vsl 30 128 0 1 0 0 empty pot_vermelho empty 0 -9 0 10
-258113 -261234 -1 0 1;
#X obj 95 507 vsl 30 128 0 1 0 0 empty pot_azul empty 0 -9 0 10 -4160
-203904 -1 5438 1;
#X obj 137 506 vsl 30 128 0 1 0 0 empty pot_verde empty 0 -9 0 10 -4034
-13381 -1 7089 1;
#X obj 178 508 vsl 30 128 0 1 0 0 empty pot_amarelo empty 0 -9 0 10
-257985 -260097 -1 0 1;
#X obj 219 507 vsl 30 128 0 1 0 0 empty pot_roxo empty 0 -9 0 10 -159808
-232576 -1 12377 1;
#X obj 442 594 > 0.5;
#X floatatom 433 645 5 0 0 0 - - -, f 5;
#X obj 513 594 change;
#X obj 641 -110 sel 0 1;
#X connect 2 0 1 0;
#X connect 4 0 3 0;
#X connect 5 0 3 0;
#X connect 7 0 8 0;
#X connect 8 0 9 0;
#X connect 9 0 21 1;
#X connect 10 0 1 0;
#X connect 13 0 44 0;
#X connect 15 0 18 0;
#X connect 15 1 17 0;
#X connect 17 0 16 0;
#X connect 18 0 12 0;
#X connect 19 0 1 0;
#X connect 20 0 47 0;
#X connect 21 0 22 0;
#X connect 22 0 35 0;
#X connect 22 1 15 0;
#X connect 22 2 23 0;
#X connect 22 3 27 0;
#X connect 23 0 25 0;
#X connect 23 1 24 0;
#X connect 24 0 26 0;
#X connect 25 0 31 0;
#X connect 27 0 29 0;
#X connect 27 1 28 0;
#X connect 28 0 30 0;
#X connect 29 0 40 0;
#X connect 35 0 37 0;
#X connect 35 1 36 0;
#X connect 36 0 38 0;
#X connect 37 0 39 0;
#X connect 41 0 42 0;
#X connect 42 0 70 1;
#X connect 42 1 49 0;
#X connect 43 0 70 0;
#X connect 43 1 52 0;
#X connect 44 0 10 0;
#X connect 44 1 7 0;
#X connect 44 2 20 0;
#X connect 45 0 21 0;
#X connect 46 0 45 0;
#X connect 46 1 2 0;
#X connect 46 2 7 1;
#X connect 47 0 45 1;
#X connect 48 0 46 0;
#X connect 48 0 83 0;
#X connect 49 0 41 0;
#X connect 50 0 49 1;
#X connect 51 0 43 0;
#X connect 52 0 51 0;
#X connect 53 0 52 1;
#X connect 54 0 61 0;
#X connect 55 0 54 0;
#X connect 56 0 55 1;
#X connect 57 0 60 0;
#X connect 58 0 57 0;
#X connect 59 0 58 1;
#X connect 60 0 70 2;
#X connect 60 1 58 0;
#X connect 61 0 70 3;
#X connect 61 1 55 0;
#X connect 70 0 69 0;
#X connect 70 1 69 1;
#X connect 70 2 69 0;
#X connect 70 3 69 1;
#X connect 70 4 69 0;
#X connect 70 5 69 1;
#X connect 70 6 69 0;
#X connect 70 7 69 1;
#X connect 71 0 38 0;
#X connect 72 0 73 0;
#X connect 73 0 38 0;
#X connect 75 0 74 0;
#X connect 76 0 74 1;
#X connect 77 0 78 0;
#X connect 78 0 16 0;
#X connect 79 0 80 0;
#X connect 80 0 26 0;
#X connect 81 0 82 0;
#X connect 82 0 30 0;
#X connect 83 0 84 0;
#X connect 84 0 81 0;
#X connect 84 0 79 0;
#X connect 84 0 77 0;
#X connect 84 0 72 0;
#X connect 85 0 90 0;
#X connect 86 0 72 0;
#X connect 87 0 77 0;
#X connect 88 0 79 0;
#X connect 89 0 81 0;
#X connect 90 0 91 0;
#X connect 90 0 92 0;
#X connect 92 0 93 0;
#X connect 93 0 48 0;
#X connect 93 1 13 0;
